:SAMPLES-PER-SECOND 30
:FULLY-SPECIFIED
:DEGREES
109
root  -2.90063 40.7912 -2.12394 -3.0304 -81.072 0.363381
RightUpLeg  5.77507 -1.80257 1.93109
RightLeg  -0.608769 -26.388 2.16215
RightFoot  -3.19086 -0.0406561 0.27736
RightToes  -3.13006e-008 1.75238e-005 3.56266e-009
Spine  -1.98725 2.50795 5.27428
Spine1  7.11098 5.67875 -12.9135
HEad  -3.43804 -8.07356 5.08431
LeftShoulder1  0.816375 -2.04003 -7.10929
LeftArm  -74.7086 -61.2417 -21.6894
LeftForeArm  112.318 -80.3092 -100.339
LeftHand  -0.866347 0.0718243 18.8526
RightShoulder  0.850903 2.7402 5.90898
RightArm  -74.2955 44.7071 9.16893
RightForeArm  127.154 72.7227 142.216
RightHand  -1.95786 9.357 -15.671
LeftUpLeg  2.56785 2.09714 5.52901
LeftLeg  1.79989 2.36353 0.878941
LeftFoot  -1.38279 0.590189 -6.67327
LeftToes  4.78685e-008 1.46778e-008 1.34523e-009
110
root  -2.89829 40.8187 -1.82916 -2.77602 -81.1274 0.268162
RightUpLeg  5.82942 -1.77165 1.5999
RightLeg  -1.01173 -26.3928 2.10526
RightFoot  -2.82224 -0.0659777 0.628507
RightToes  -3.13006e-008 1.75238e-005 3.56266e-009
Spine  -1.86805 1.79538 5.21171
Spine1  6.20187 4.45053 -11.4033
HEad  -2.75208 -7.97992 5.50445
LeftShoulder1  0.793897 -2.13672 -6.36385
LeftArm  -75.7795 -60.4763 -18.7043
LeftForeArm  106.527 -80.3976 -95.169
LeftHand  -1.08769 -0.753798 20.5953
RightShoulder  0.825042 2.49688 6.04441
RightArm  -75.2858 44.0451 8.74136
RightForeArm  127.387 72.5453 142.655
RightHand  -1.91092 9.55598 -15.1167
LeftUpLeg  2.52369 1.99693 5.14807
LeftLeg  1.72699 2.49552 0.706595
LeftFoot  -1.44939 0.545767 -6.20446
LeftToes  4.78685e-008 1.46778e-008 1.34523e-009
111
root  -2.89574 40.8408 -1.54783 -2.90376 -81.076 0.501669
RightUpLeg  5.84262 -1.62694 1.3302
RightLeg  -1.16774 -26.6395 1.77846
RightFoot  -2.53167 -0.103461 1.12
RightToes  -3.13006e-008 1.75238e-005 3.56266e-009
Spine  -1.88586 1.0536 4.38747
Spine1  5.70112 3.0843 -8.98933
HEad  -2.1145 -6.95559 5.84672
LeftShoulder1  0.727695 -1.7539 -6.10788
LeftArm  -75.1268 -61.251 -18.2546
LeftForeArm  106.713 -80.4529 -94.3808
LeftHand  -1.02893 -0.588951 19.9919
RightShoulder  0.842066 2.4373 6.52339
RightArm  -76.2977 43.5093 8.56878
RightForeArm  127.296 72.1147 143.573
RightHand  -1.8589 10.0085 -14.3051
LeftUpLeg  2.45224 2.04163 4.81395
LeftLeg  1.77507 2.42207 0.383476
LeftFoot  -1.48284 0.495447 -5.63805
LeftToes  4.78685e-008 1.46778e-008 1.34523e-009
112
root  -2.90361 40.8389 -1.28244 -3.35761 -80.947 0.93475
RightUpLeg  5.75696 -1.71259 0.950409
RightLeg  -0.709173 -26.673 1.30157
RightFoot  -2.52501 -0.146768 1.68044
RightToes  -3.13006e-008 1.75238e-005 3.56266e-009
Spine  -2.21017 0.395998 3.2995
Spine1  5.91452 1.84067 -6.2363
HEad  -1.66506 -7.19894 6.79111
LeftShoulder1  0.741337 -1.82415 -6.18683
LeftArm  -73.6278 -61.6518 -18.4892
LeftForeArm  110.805 -80.3923 -98.2133
LeftHand  -1.01625 -0.780905 19.1892
RightShoulder  0.856514 2.48358 6.67044
RightArm  -77.211 42.2139 9.2079
RightForeArm  127.427 71.3689 145.121
RightHand  -1.79442 10.101 -13.7525
LeftUpLeg  2.30603 1.99788 4.45068
LeftLeg  2.24919 2.24369 0.130804
LeftFoot  -1.77265 0.430755 -5.01855
LeftToes  4.78685e-008 1.46778e-008 1.34523e-009
113
root  -2.90056 40.8328 -1.03709 -3.52867 -80.9274 1.03428
RightUpLeg  5.73391 -1.92276 0.530383
RightLeg  -0.334119 -26.405 1.0566
RightFoot  -2.57401 -0.1762 2.06953
RightToes  -3.13006e-008 1.75238e-005 3.56266e-009
Spine  -2.51137 -0.250237 2.82889
Spine1  6.40908 0.818297 -4.54345
HEad  -1.35086 -6.54329 7.24436
LeftShoulder1  0.711018 -1.6457 -6.06439
LeftArm  -71.2271 -61.7611 -19.902
LeftForeArm  118.215 -80.1787 -105.212
LeftHand  -1.09099 -1.43442 18.6331
RightShoulder  0.926834 2.62343 7.59885
RightArm  -77.4872 41.1767 9.69274
RightForeArm  127.502 70.9129 145.999
RightHand  -1.83807 9.6346 -14.4858
LeftUpLeg  2.16006 1.79711 4.03756
LeftLeg  2.80581 2.38283 0.12911
LeftFoot  -2.07775 0.387691 -4.63135
LeftToes  4.78685e-008 1.46778e-008 1.34523e-009
114
root  -2.88315 40.8327 -0.820363 -4.23931 -81.3676 1.6999
RightUpLeg  5.56664 -2.09081 0.0786343
RightLeg  0.14753 -25.7339 0.734857
RightFoot  -2.57766 -0.201166 2.39674
RightToes  -3.13006e-008 1.75238e-005 3.56266e-009
Spine  -2.69415 -0.604247 2.74227
Spine1  6.88226 0.205328 -3.44382
HEad  -1.51147 -5.97306 7.55154
LeftShoulder1  0.784472 -1.9735 -6.64949
LeftArm  -69.1931 -61.0859 -20.2803
LeftForeArm  122.409 -79.974 -109.232
LeftHand  -0.923751 -0.512908 18.2394
RightShoulder  0.992253 2.79556 8.30193
RightArm  -76.9714 40.3783 10.0491
RightForeArm  128.199 70.5181 146.815
RightHand  -1.73039 9.40465 -13.8669
LeftUpLeg  2.19708 1.69145 3.64443
LeftLeg  3.06229 2.96194 0.0159775
LeftFoot  -2.2664 0.352238 -4.26633
LeftToes  4.78685e-008 1.46778e-008 1.34523e-009
115
root  -2.88267 40.8315 -0.666023 -4.96623 -82.1587 2.26562
RightUpLeg  5.59079 -2.08076 -0.157747
RightLeg  0.418319 -24.9462 0.426409
RightFoot  -2.5914 -0.219222 2.63147
RightToes  -3.13006e-008 1.75238e-005 3.56266e-009
Spine  -3.13446 -0.704945 3.05332
Spine1  7.78634 0.0215218 -3.15824
HEad  -1.94443 -5.75713 7.51651
LeftShoulder1  0.807374 -2.05509 -6.87531
LeftArm  -68.2378 -60.8343 -20.7312
LeftForeArm  125.337 -79.7068 -112.815
LeftHand  -0.922246 -1.05826 16.6761
RightShoulder  1.06677 3.06217 8.8584
RightArm  -76.1648 39.9269 10.2153
RightForeArm  128.263 70.2865 147.231
RightHand  -1.61101 8.85239 -13.4268
LeftUpLeg  2.50773 1.80694 3.46575
LeftLeg  3.15569 3.67377 -0.167861
LeftFoot  -2.42348 0.319113 -3.90606
LeftToes  4.78685e-008 1.46778e-008 1.34523e-009
116
root  -2.88626 40.8302 -0.539826 -6.57289 -82.9403 3.83558
RightUpLeg  5.38485 -2.31896 -0.604577
RightLeg  0.907821 -23.8615 0.219442
RightFoot  -2.67302 -0.23423 2.8327
RightToes  -3.13006e-008 1.75238e-005 3.56266e-009
Spine  -3.04661 -0.870832 3.51669
Spine1  7.81496 -0.0907008 -3.46439
HEad  -2.00593 -5.20701 7.76547
LeftShoulder1  0.792669 -1.98049 -6.79379
LeftArm  -67.7357 -59.8048 -20.4989
LeftForeArm  124.232 -79.7458 -112.027
LeftHand  -0.861593 -1.05293 15.6035
RightShoulder  1.11903 3.34503 8.96071
RightArm  -74.599 39.5536 10.9832
RightForeArm  128.977 70.3536 147.21
RightHand  -1.71815 9.25367 -13.9144
LeftUpLeg  2.80387 1.71107 3.12733
LeftLeg  2.99241 4.64866 -0.266559
LeftFoot  -2.47919 0.299354 -3.67083
LeftToes  4.78685e-008 1.46778e-008 1.34523e-009
117
root  -2.89649 40.8297 -0.439569 -7.09335 -83.7693 4.31723
RightUpLeg  5.25159 -2.33662 -0.768513
RightLeg  1.16625 -22.9777 0.0721598
RightFoot  -2.67451 -0.241972 2.93594
RightToes  -3.13006e-008 1.75238e-005 3.56266e-009
Spine  -2.90022 -0.876251 4.21499
Spine1  7.63178 -0.0116087 -4.00698
HEad  -1.8814 -4.87022 7.92927
LeftShoulder1  0.832545 -2.16692 -7.05372
LeftArm  -66.8568 -58.5863 -20.1429
LeftForeArm  122.013 -79.8174 -110.487
LeftHand  -0.984546 -1.31014 17.1613
RightShoulder  1.07095 3.10733 8.80436
RightArm  -72.3117 39.5467 12.4776
RightForeArm  130.666 70.0528 147.952
RightHand  -1.78821 9.7789 -13.9828
LeftUpLeg  2.95482 1.56923 2.89486
LeftLeg  3.09878 5.69309 -0.119458
LeftFoot  -2.65342 0.289093 -3.59546
LeftToes  4.78685e-008 1.46778e-008 1.34523e-009
118
root  -2.93527 40.8259 -0.406991 -7.25344 -84.3778 4.39506
RightUpLeg  5.18834 -2.28406 -0.75403
RightLeg  1.50085 -22.4744 -0.112653
RightFoot  -2.76876 -0.249542 3.07614
RightToes  -3.13006e-008 1.75238e-005 3.56266e-009
Spine  -3.10057 -0.776281 4.34703
Spine1  7.74073 0.111614 -4.12185
HEad  -1.22774 -5.53247 8.14124
LeftShoulder1  0.799032 -1.97446 -6.94172
LeftArm  -63.149 -57.0367 -22.7799
LeftForeArm  122.663 -79.5966 -112.619
LeftHand  -0.837105 -0.524481 16.532
RightShoulder  1.03656 2.92446 8.72145
RightArm  -68.6321 38.6179 15.2326
RightForeArm  133.84 69.3851 149.438
RightHand  -1.88854 9.61185 -14.887
LeftUpLeg  3.10508 1.62434 2.88396
LeftLeg  3.31139 6.30212 -0.0731598
LeftFoot  -2.84773 0.279906 -3.53621
LeftToes  4.78685e-008 1.46778e-008 1.34523e-009
119
root  -2.99729 40.8029 -0.399921 -6.2672 -84.5354 3.09935
RightUpLeg  5.27117 -2.35423 -0.661979
RightLeg  2.23644 -22.3085 -0.322359
RightFoot  -3.16346 -0.249674 3.18853
RightToes  -3.13006e-008 1.75238e-005 3.56266e-009
Spine  -3.64874 -0.88813 3.5216
Spine1  8.16637 -0.214897 -3.0707
HEad  0.119281 -5.50217 7.84326
LeftShoulder1  0.771442 -1.7952 -6.91153
LeftArm  -56.5761 -53.1834 -27.4371
LeftForeArm  128.587 -79.0986 -118.43
LeftHand  -0.803154 -0.0454985 17.1639
RightShoulder  1.0288 2.86371 8.76556
RightArm  -61.9756 36.7174 19.9238
RightForeArm  140.718 68.2256 151.99
RightHand  -2.22711 9.84876 -17.1847
LeftUpLeg  3.13736 1.83858 3.07424
LeftLeg  4.1955 6.21458 0.0450334
LeftFoot  -3.50655 0.295378 -4.03077
LeftToes  4.78685e-008 1.46778e-008 1.34523e-009
120
root  -3.07886 40.7516 -0.42596 -3.84826 -84.8573 -0.0705341
RightUpLeg  5.57498 -2.23949 -0.276071
RightLeg  3.56215 -22.1446 -0.859043
RightFoot  -3.85361 -0.24726 3.37718
RightToes  -3.13006e-008 1.75238e-005 3.56266e-009
Spine  -4.188 -0.786363 2.71887
Spine1  8.88984 -0.363297 -1.85467
HEad  1.57619 -5.26308 7.23378
LeftShoulder1  0.891955 -2.11154 -8.39539
LeftArm  -48.0676 -47.8693 -32.2686
LeftForeArm  142.998 -78.1496 -128.011
LeftHand  -1.16651 -1.61335 19.3267
RightShoulder  1.05146 2.69967 9.64407
RightArm  -53.0676 33.4676 25.3809
RightForeArm  150.773 66.754 154.991
RightHand  -2.62511 10.241 -19.6632
LeftUpLeg  3.41853 2.35341 3.55613
LeftLeg  5.66436 5.92478 0.256124
LeftFoot  -4.64071 0.309477 -4.77506
LeftToes  4.78685e-008 1.46778e-008 1.34523e-009
121
root  -3.18898 40.6417 -0.460812 -1.40869 -85.206 -3.84251
RightUpLeg  6.19148 -2.36174 0.032594
RightLeg  5.74114 -21.6247 -1.58382
RightFoot  -5.18694 -0.237985 3.778
RightToes  -3.13006e-008 1.75238e-005 3.56266e-009
Spine  -5.02441 -0.748569 2.06057
Spine1  10.8727 -0.507685 -0.888685
HEad  2.46642 -5.07286 6.48007
LeftShoulder1  1.09422 -2.60207 -10.6637
LeftArm  -39.3048 -40.4769 -35.8813
LeftForeArm  158.12 -76.3393 -138.438
LeftHand  -1.50464 -2.77733 21.4692
RightShoulder  1.28792 3.38362 11.5657
RightArm  -44.2186 29.1139 29.9432
RightForeArm  159.452 64.6196 158.18
RightHand  -2.88179 10.3116 -21.4144
LeftUpLeg  4.13534 2.81234 3.93987
LeftLeg  7.6868 5.64808 0.757929
LeftFoot  -5.81219 0.229455 -4.05821
LeftToes  4.78685e-008 1.46778e-008 1.34523e-009
122
root  -3.2992 40.478 -0.490409 -0.371311 -85.5562 -6.75354
RightUpLeg  7.07799 -2.70971 0.182147
RightLeg  8.63562 -20.8138 -2.63505
RightFoot  -6.94724 -0.211458 4.26924
RightToes  -3.13006e-008 1.75238e-005 3.56266e-009
Spine  -6.27502 -0.735206 1.47117
Spine1  14.3979 -0.598499 -0.215626
HEad  1.99296 -4.51472 5.96171
LeftShoulder1  1.3975 -3.35013 -13.3903
LeftArm  -31.4256 -32.3594 -38.5214
LeftForeArm  168.793 -73.8326 -146.746
LeftHand  -1.44707 -2.55817 21.1624
RightShoulder  1.66578 4.33931 14.4313
RightArm  -35.7562 24.2062 32.4734
RightForeArm  164.026 63.0916 159.975
RightHand  -3.02405 10.0714 -22.7562
LeftUpLeg  5.10254 3.02482 4.23145
LeftLeg  10.4477 5.49675 1.37883
LeftFoot  -7.695 0.19061 -4.53576
LeftToes  4.78685e-008 1.46778e-008 1.34523e-009
